<?xml version="1.0" encoding="UTF-8" standalone="no"?>
<!-- Created with Inkscape (http://www.inkscape.org/) -->

<svg
   width="100mm"
   height="100mm"
   viewBox="0 0 100 100"
   version="1.1"
   id="svg1"
   inkscape:version="1.3.2 (091e20e, 2023-11-25, custom)"
   sodipodi:docname="Washer.svg"
   xmlns:inkscape="http://www.inkscape.org/namespaces/inkscape"
   xmlns:sodipodi="http://sodipodi.sourceforge.net/DTD/sodipodi-0.dtd"
   xmlns="http://www.w3.org/2000/svg"
   xmlns:svg="http://www.w3.org/2000/svg">
  <sodipodi:namedview
     id="namedview1"
     pagecolor="#ffffff"
     bordercolor="#000000"
     borderopacity="0.25"
     inkscape:showpageshadow="2"
     inkscape:pageopacity="0.0"
     inkscape:pagecheckerboard="0"
     inkscape:deskcolor="#d1d1d1"
     inkscape:document-units="mm"
     inkscape:zoom="1.3843855"
     inkscape:cx="125.32636"
     inkscape:cy="141.21789"
     inkscape:window-width="1920"
     inkscape:window-height="991"
     inkscape:window-x="1699"
     inkscape:window-y="192"
     inkscape:window-maximized="1"
     inkscape:current-layer="layer1" />
  <defs
     id="defs1" />
  <g
     inkscape:label="Layer 1"
     inkscape:groupmode="layer"
     id="layer1">
    <path
       id="path1"
       style="fill:none;fill-opacity:0.435018;stroke:#ff0000;stroke-width:0.1;stroke-linecap:round;stroke-linejoin:round;stroke-dasharray:none;stroke-dashoffset:455.672"
       d="M 6.9077251,3.6451842 A 3.1999998,3.1999998 0 0 0 3.7079204,6.8449888 3.1999998,3.1999998 0 0 0 6.9077251,10.045311 3.1999998,3.1999998 0 0 0 10.108046,6.8449888 3.1999998,3.1999998 0 0 0 6.9077251,3.6451842 Z m 0,1.6040364 A 1.5483613,1.5483615 0 0 1 8.4564678,6.7974465 1.5483613,1.5483615 0 0 1 6.9077251,8.3456724 1.5483613,1.5483615 0 0 1 5.3594992,6.7974465 1.5483613,1.5483615 0 0 1 6.9077251,5.2492206 Z" />
    <path
       id="path1-2"
       style="fill:none;fill-opacity:0.435018;stroke:#ff0000;stroke-width:0.1;stroke-linecap:round;stroke-linejoin:round;stroke-dasharray:none;stroke-dashoffset:455.672"
       d="M 6.907725,11.633695 A 3.1999998,3.1999998 0 0 0 3.7079203,14.8335 3.1999998,3.1999998 0 0 0 6.907725,18.033822 3.1999998,3.1999998 0 0 0 10.108046,14.8335 3.1999998,3.1999998 0 0 0 6.907725,11.633695 Z m 0,1.604037 A 1.5483613,1.5483615 0 0 1 8.456468,14.785957 1.5483613,1.5483615 0 0 1 6.907725,16.334183 1.5483613,1.5483615 0 0 1 5.3594991,14.785957 1.5483613,1.5483615 0 0 1 6.907725,13.237732 Z" />
    <path
       id="path1-2-6"
       style="fill:none;fill-opacity:0.435018;stroke:#ff0000;stroke-width:0.1;stroke-linecap:round;stroke-linejoin:round;stroke-dasharray:none;stroke-dashoffset:455.672"
       d="m 6.9077252,19.622206 a 3.1999998,3.1999998 0 0 0 -3.1998051,3.199805 3.1999998,3.1999998 0 0 0 3.1998051,3.200322 3.1999998,3.1999998 0 0 0 3.2003208,-3.200322 3.1999998,3.1999998 0 0 0 -3.2003208,-3.199805 z m 0,1.604037 a 1.5483613,1.5483615 0 0 1 1.548743,1.548225 1.5483613,1.5483615 0 0 1 -1.548743,1.548226 1.5483613,1.5483615 0 0 1 -1.5482263,-1.548226 1.5483613,1.5483615 0 0 1 1.5482263,-1.548225 z" />
    <path
       id="path1-2-3"
       style="fill:none;fill-opacity:0.435018;stroke:#ff0000;stroke-width:0.1;stroke-linecap:round;stroke-linejoin:round;stroke-dasharray:none;stroke-dashoffset:455.672"
       d="M 6.9077251,27.610717 A 3.1999998,3.1999998 0 0 0 3.70792,30.810522 3.1999998,3.1999998 0 0 0 6.9077251,34.010844 3.1999998,3.1999998 0 0 0 10.108046,30.810522 3.1999998,3.1999998 0 0 0 6.9077251,27.610717 Z m 0,1.604037 a 1.5483613,1.5483615 0 0 1 1.548743,1.548225 1.5483613,1.5483615 0 0 1 -1.548743,1.548226 1.5483613,1.5483615 0 0 1 -1.548226,-1.548226 1.5483613,1.5483615 0 0 1 1.548226,-1.548225 z" />
    <path
       id="path1-9"
       style="fill:none;fill-opacity:0.435018;stroke:#ff0000;stroke-width:0.1;stroke-linecap:round;stroke-linejoin:round;stroke-dasharray:none;stroke-dashoffset:455.672"
       d="m 14.996491,3.645184 a 3.1999998,3.1999998 0 0 0 -3.199804,3.199805 3.1999998,3.1999998 0 0 0 3.199804,3.200322 3.1999998,3.1999998 0 0 0 3.200321,-3.200322 3.1999998,3.1999998 0 0 0 -3.200321,-3.199805 z m 0,1.604037 a 1.5483613,1.5483615 0 0 1 1.548743,1.548226 1.5483613,1.5483615 0 0 1 -1.548743,1.548225 1.5483613,1.5483615 0 0 1 -1.548226,-1.548225 1.5483613,1.5483615 0 0 1 1.548226,-1.548226 z" />
    <path
       id="path1-2-25"
       style="fill:none;fill-opacity:0.435018;stroke:#ff0000;stroke-width:0.1;stroke-linecap:round;stroke-linejoin:round;stroke-dasharray:none;stroke-dashoffset:455.672"
       d="m 14.996491,11.633695 a 3.1999998,3.1999998 0 0 0 -3.199805,3.199805 3.1999998,3.1999998 0 0 0 3.199805,3.200322 3.1999998,3.1999998 0 0 0 3.200321,-3.200322 3.1999998,3.1999998 0 0 0 -3.200321,-3.199805 z m 0,1.604037 a 1.5483613,1.5483615 0 0 1 1.548743,1.548225 1.5483613,1.5483615 0 0 1 -1.548743,1.548226 1.5483613,1.5483615 0 0 1 -1.548226,-1.548226 1.5483613,1.5483615 0 0 1 1.548226,-1.548225 z" />
    <path
       id="path1-2-6-4"
       style="fill:none;fill-opacity:0.435018;stroke:#ff0000;stroke-width:0.1;stroke-linecap:round;stroke-linejoin:round;stroke-dasharray:none;stroke-dashoffset:455.672"
       d="m 14.996491,19.622206 a 3.1999998,3.1999998 0 0 0 -3.199805,3.199805 3.1999998,3.1999998 0 0 0 3.199805,3.200322 3.1999998,3.1999998 0 0 0 3.200321,-3.200322 3.1999998,3.1999998 0 0 0 -3.200321,-3.199805 z m 0,1.604037 a 1.5483613,1.5483615 0 0 1 1.548743,1.548225 1.5483613,1.5483615 0 0 1 -1.548743,1.548226 1.5483613,1.5483615 0 0 1 -1.548226,-1.548226 1.5483613,1.5483615 0 0 1 1.548226,-1.548225 z" />
    <path
       id="path1-2-3-6"
       style="fill:none;fill-opacity:0.435018;stroke:#ff0000;stroke-width:0.1;stroke-linecap:round;stroke-linejoin:round;stroke-dasharray:none;stroke-dashoffset:455.672"
       d="m 14.996491,27.610717 a 3.1999998,3.1999998 0 0 0 -3.199805,3.199805 3.1999998,3.1999998 0 0 0 3.199805,3.200322 3.1999998,3.1999998 0 0 0 3.200321,-3.200322 3.1999998,3.1999998 0 0 0 -3.200321,-3.199805 z m 0,1.604037 a 1.5483613,1.5483615 0 0 1 1.548743,1.548225 1.5483613,1.5483615 0 0 1 -1.548743,1.548226 1.5483613,1.5483615 0 0 1 -1.548226,-1.548226 1.5483613,1.5483615 0 0 1 1.548226,-1.548225 z" />
    <path
       id="path2"
       style="display:none;fill:none;fill-opacity:0.435018;stroke:#ff0000;stroke-width:0.0786266;stroke-linecap:round;stroke-linejoin:round;stroke-dasharray:none;stroke-dashoffset:455.672"
       d="m 7.8155345,13.11971 a 2.4606867,2.4606867 0 0 0 -2.460314,2.460831 2.4606867,2.4606867 0 0 0 1.005106,1.976624 h 2.910417 A 2.4606867,2.4606867 0 0 0 10.276367,15.580541 2.4606867,2.4606867 0 0 0 7.8155345,13.11971 Z" />
    <circle
       style="display:none;fill:none;fill-opacity:0.435018;stroke:#ff0000;stroke-width:0.1;stroke-linecap:round;stroke-linejoin:round;stroke-dasharray:none;stroke-dashoffset:455.672"
       id="path3"
       cx="7.8157935"
       cy="15.54115"
       r="3.4341586" />
    <path
       id="path3-0"
       style="display:none;fill:none;fill-opacity:0.435018;stroke:#ff0000;stroke-width:0.1;stroke-linecap:round;stroke-linejoin:round;stroke-dasharray:none;stroke-dashoffset:455.672"
       d="m 18.233159,4.6992008 a 3.4341586,3.4341586 0 0 0 -3.433899,3.4338989 3.4341586,3.4341586 0 0 0 1.335836,2.7078443 v 6.705534 h 4.196643 V 10.840944 A 3.4341586,3.4341586 0 0 0 21.667575,8.1330997 3.4341586,3.4341586 0 0 0 18.233159,4.6992008 Z" />
  </g>
</svg>
